<?xml version="1.0" encoding="UTF-8"?>
<svg id="Layer_1" data-name="Layer 1" xmlns="http://www.w3.org/2000/svg" viewBox="0 0 512 126.64">
  <g>
    <path d="m84.27,20.17c-9.84-9.84-23.42-15.92-38.41-15.92h-12.15s-.08.04-.08.08v20.76s.04.08.08.08h11.45c19.46,0,35.18,15.93,34.05,35.36-1.01,17.52-15.59,31.46-33.35,31.46h-12.15s-.08.04-.08.08v20.76s.04.08.08.08h12.15c30,0,54.32-24.32,54.32-54.32,0-15-6.08-28.58-15.91-38.41Z"/>
    <path d="m214.76,86.5V5.75h-20.91v86.01c0,11.55,9.36,20.91,20.91,20.91h48.24v-20.91h-42.98c-2.91,0-5.26-2.36-5.26-5.26Z"/>
    <path d="m185.37,26.67V5.75h-58.54c-11.55,0-20.91,9.36-20.91,20.91v86.23h20.91v-41.11h41.07v-20.91h-41.07v-24.21h58.54Z"/>
    <path d="m54.3,74.35h-9.43v9.67c-2.01-1.16-3.71-2.14-5.41-3.12-3.11-1.79-6.24-3.54-9.3-5.41-.92-.56-1.58-.51-2.47.01-4.42,2.62-8.88,5.18-13.33,7.76-.32.18-.65.35-1.24.66v-9.44H3.55c1.34-2.36,2.48-4.4,3.65-6.42,1.6-2.79,3.19-5.58,4.86-8.33.52-.85.52-1.47.01-2.33-2.62-4.42-5.17-8.89-7.73-13.35-.2-.35-.35-.74-.64-1.34h9.31v-9.59c1.66.94,3.04,1.7,4.4,2.49,3.25,1.87,6.55,3.66,9.71,5.67,1.4.89,2.41.77,3.74-.04,4.07-2.47,8.22-4.81,12.35-7.2.45-.26.91-.48,1.56-.83v9.37h9.6c-.43.83-.69,1.37-.98,1.89-2.49,4.31-4.95,8.63-7.5,12.92-.51.86-.51,1.47,0,2.32,2.54,4.28,5.01,8.61,7.49,12.92.28.49.54,1,.93,1.72Zm-10.5-30.38c-.07-.08-.14-.16-.21-.24-.27.13-.55.25-.81.4-4.18,2.4-8.37,4.77-12.51,7.23-.95.56-1.64.6-2.61.02-4.14-2.47-8.33-4.84-12.51-7.23-.32-.18-.68-.3-1.29-.57,2.77,4.8,5.34,9.31,7.98,13.77.55.93.47,1.58-.05,2.47-2.06,3.44-4.04,6.93-6.04,10.41-.58,1.01-1.15,2.04-1.72,3.06,4.73-2.41,9.24-4.97,13.7-7.61.92-.54,1.57-.51,2.47.02,3.49,2.09,7.03,4.09,10.56,6.11.94.54,1.9,1.06,3.16,1.76-.23-.55-.29-.74-.38-.91-2.41-4.17-4.76-8.37-7.27-12.48-.76-1.24-.68-2.12.04-3.31,2.56-4.26,5-8.59,7.48-12.9Z"/>
  </g>
  <g>
    <path d="m280.54,20.65h10.38c10.24,0,15.17,6.64,15.17,16.74s-4.93,16.47-15.17,16.47h-10.38V20.65Zm10.52,28.51c7.24,0,9.87-4.7,9.87-11.76s-2.86-12.04-9.87-12.04h-5.54v23.8h5.54Z"/>
    <path d="m310.75,19.77h5.63v4.7h-5.63v-4.7Zm.32,8.72h4.93v25.37h-4.93v-25.37Z"/>
    <path d="m322.1,56.49l4.52-.92c.74,2.21,2.72,4.29,7.2,4.29s6.78-1.98,6.78-6.41v-4.52l-.42-.18c-.92,1.75-3.78,4.24-8.12,4.24-6,0-11.16-4.57-11.16-11.95,0-7.98,5.03-13.01,11.02-13.01,3.78,0,6.73,2.03,8.16,4.38l.37-.14.46-3.78h4.47v24.77c0,7.2-4.01,10.79-11.67,10.79-6.83,0-10.42-3-11.62-7.56Zm18.36-14.3v-3c0-3.18-2.68-6.69-7.29-6.69s-7.2,3.74-7.2,8.35,2.91,7.79,7.2,7.79c4.52,0,7.29-3.32,7.29-6.46Z"/>
    <path d="m350.47,19.77h5.63v4.7h-5.63v-4.7Zm.32,8.72h4.94v25.37h-4.94v-25.37Z"/>
    <path d="m364.26,46.39v-13.47h-4.43v-4.43h4.84l.46-6h3.97v6h6.27v4.43h-6.18v13.47c0,1.89.65,2.81,2.68,2.81h2.72v4.66h-4.15c-4.7,0-6.18-3.14-6.18-7.47Z"/>
    <path d="m395.95,50.72v-.05l-.37-.18c-1.52,2.54-4.34,3.83-7.52,3.83-5.54,0-8.9-2.72-8.9-7.2s3.28-6.6,6.83-7.1l8.81-1.29c.6-.09.78-.32.78-.83v-.32c0-3.51-2.35-5.26-5.86-5.26-3.74,0-5.77,2.21-6.5,4.52l-4.34-.97c.97-4.7,5.49-7.84,11.07-7.84s10.56,2.35,10.56,8.53v17.3h-4.11l-.46-3.14Zm-6.73.14c3.87,0,6.37-2.72,6.37-7.38v-1.75l-7.66,1.29c-2.49.42-4.06,1.43-4.06,3.64,0,2.54,1.98,4.2,5.35,4.2Z"/>
    <path d="m405.59,20.19h4.93v33.67h-4.93V20.19Z"/>
    <path d="m280.54,63.7h21.4v4.47h-16.42v11.3h15.77v4.52h-15.77v12.92h-4.98v-33.21Z"/>
    <path d="m305.72,88.7v-17.16h4.94v15.73c0,4.2,3.04,5.21,5.72,5.21,3.51,0,6.5-2.12,7.47-5.03v-15.91h4.94v25.37h-4.47l-.46-3.51v-.05l-.37-.14c-1.75,2.21-4.2,4.15-8.3,4.15-3.74,0-9.46-1.98-9.46-8.67Z"/>
    <path d="m337.32,89.44v-13.47h-4.43v-4.43h4.84l.46-6h3.97v6h6.27v4.43h-6.18v13.47c0,1.89.65,2.81,2.68,2.81h2.72v4.66h-4.15c-4.7,0-6.18-3.14-6.18-7.47Z"/>
    <path d="m352.59,88.7v-17.16h4.94v15.73c0,4.2,3.04,5.21,5.72,5.21,3.51,0,6.5-2.12,7.47-5.03v-15.91h4.93v25.37h-4.47l-.46-3.51v-.05l-.37-.14c-1.75,2.21-4.2,4.15-8.3,4.15-3.74,0-9.46-1.98-9.46-8.67Z"/>
    <path d="m381.1,71.54h4.93v3.92l.32.14c1.38-2.81,3.14-4.06,6.78-4.06h1.2v4.43h-1.2c-4.61,0-6.55,2.49-7.1,5.86v15.08h-4.93v-25.37Z"/>
    <path d="m395.95,84.28c0-8.44,5.72-13.19,12.13-13.19,6,0,11.67,3.83,11.53,11.76v2.91h-18.63c.46,4.66,3.37,7.38,7.79,7.38s5.95-2.35,6.64-4.06l3.41,2.17c-1.38,3.55-4.7,6.13-10.1,6.13-7.47,0-12.78-4.84-12.78-13.1Zm19.19-2.17v-.41c0-3.37-2.54-6.27-6.87-6.27-3.41,0-6.46,2.17-7.2,6.69h14.07Z"/>
    <path d="m433.04,63.7h4.98v28.74h16.42v4.47h-21.4v-33.21Z"/>
    <path d="m474.14,93.78v-.05l-.37-.18c-1.52,2.54-4.34,3.83-7.52,3.83-5.54,0-8.9-2.72-8.9-7.2s3.28-6.6,6.83-7.1l8.81-1.29c.6-.09.78-.32.78-.83v-.32c0-3.51-2.35-5.26-5.86-5.26-3.74,0-5.77,2.21-6.5,4.52l-4.34-.97c.97-4.7,5.49-7.84,11.07-7.84s10.56,2.35,10.56,8.53v17.3h-4.11l-.46-3.14Zm-6.73.14c3.87,0,6.37-2.72,6.37-7.38v-1.75l-7.66,1.29c-2.49.42-4.06,1.43-4.06,3.64,0,2.54,1.98,4.2,5.35,4.2Z"/>
    <path d="m489.08,92.95l-.37.14-.46,3.83h-4.47v-33.67h4.93v12.08l.37.14c1.52-2.49,4.38-4.38,8.26-4.38,6.09,0,11.12,5.03,11.12,13.19s-5.3,13.1-11.3,13.1c-4.43,0-7.19-2.68-8.07-4.43Zm14.3-8.67c0-5.12-2.72-8.81-7.33-8.81s-7.33,3.55-7.33,7.06v3c0,4.2,2.72,7.47,7.33,7.47s7.33-3.41,7.33-8.72Z"/>
  </g>
</svg>