<?xml version="1.0" encoding="UTF-8"?>
<svg id="Layer_1" data-name="Layer 1" xmlns="http://www.w3.org/2000/svg" viewBox="0 0 512 512">
  <defs>
    <style>
      .cls-1, .cls-2 {
        fill: #fff;
      }

      .cls-3 {
        letter-spacing: 0em;
      }

      .cls-4 {
        letter-spacing: 0em;
      }

      .cls-5 {
        letter-spacing: 0em;
      }

      .cls-6 {
        letter-spacing: -.02em;
      }

      .cls-2 {
        font-family: Helvena-Md, Helvena;
        font-size: 88.51px;
        font-weight: 500;
      }

      .cls-7 {
        letter-spacing: -.01em;
      }

      .cls-8 {
        letter-spacing: -.03em;
      }
    </style>
  </defs>
  <path class="cls-1" d="m161.97,86.38c-18.87-18.87-44.93-30.54-73.71-30.54h-23.31c-.08,0-.15.07-.15.15v39.82c0,.08.07.15.15.15h21.97c37.34,0,67.49,30.56,65.34,67.84-1.94,33.61-29.91,60.37-64,60.37h-23.31c-.08,0-.15.07-.15.15v39.82c0,.08.07.15.15.15h23.31c57.56,0,104.23-46.66,104.23-104.23,0-28.78-11.67-54.84-30.53-73.69Z"/>
  <path class="cls-1" d="m412.35,213.65V58.73h-40.12v165.03c0,22.16,17.96,40.12,40.12,40.12h92.56v-40.12h-82.46c-5.58,0-10.1-4.52-10.1-10.1Z"/>
  <path class="cls-1" d="m355.96,98.85v-40.12h-112.32c-22.16,0-40.12,17.96-40.12,40.12v165.45h40.12v-78.88h78.8v-40.12h-78.8v-46.45h112.32Z"/>
  <path class="cls-1" d="m104.48,190.35h-18.09v18.55c-3.87-2.23-7.13-4.11-10.38-5.99-5.96-3.44-11.97-6.8-17.84-10.38-1.77-1.08-3.03-.99-4.74.02-8.48,5.03-17.04,9.94-25.57,14.88-.61.35-1.25.67-2.38,1.27v-18.11H7.09c2.57-4.53,4.76-8.44,6.99-12.33,3.07-5.34,6.11-10.71,9.32-15.98.99-1.63,1-2.82.03-4.48-5.02-8.49-9.91-17.06-14.83-25.61-.39-.68-.68-1.42-1.22-2.56h17.87v-18.4c3.19,1.81,5.83,3.27,8.44,4.78,6.23,3.59,12.56,7.03,18.62,10.88,2.69,1.71,4.62,1.47,7.18-.09,7.81-4.74,15.78-9.23,23.69-13.81.85-.49,1.74-.93,2.99-1.59v17.99h18.41c-.83,1.6-1.32,2.63-1.89,3.62-4.77,8.27-9.51,16.57-14.38,24.78-.97,1.64-.98,2.81,0,4.46,4.87,8.21,9.6,16.51,14.38,24.78.54.94,1.04,1.91,1.79,3.3Zm-20.15-58.29c-.13-.15-.26-.3-.39-.45-.52.25-1.06.47-1.56.76-8.01,4.6-16.05,9.16-24,13.87-1.81,1.07-3.14,1.15-5.01.04-7.94-4.73-15.98-9.28-24-13.88-.61-.35-1.3-.57-2.48-1.09,5.32,9.21,10.24,17.86,15.32,26.41,1.06,1.78.91,3.04-.1,4.74-3.95,6.61-7.75,13.31-11.59,19.98-1.12,1.95-2.2,3.91-3.3,5.87,9.07-4.63,17.72-9.54,26.28-14.61,1.76-1.04,3.02-.98,4.74.05,6.7,4,13.49,7.84,20.26,11.73,1.81,1.04,3.65,2.03,6.07,3.37-.44-1.06-.55-1.42-.73-1.74-4.62-8-9.13-16.07-13.95-23.95-1.46-2.39-1.3-4.06.08-6.35,4.91-8.18,9.59-16.49,14.35-24.75Z"/>
  <text class="cls-2" transform="translate(55.74 353.28)"><tspan x="0" y="0">Digi</tspan><tspan class="cls-5" x="154.35" y="0">t</tspan><tspan class="cls-4" x="190.37" y="0">al</tspan><tspan class="cls-6" x="0" y="82.61">F</tspan><tspan x="48.06" y="82.61">utu</tspan><tspan class="cls-8" x="192.59" y="82.61">r</tspan><tspan class="cls-3" x="222.15" y="82.61">e </tspan><tspan class="cls-7" x="292.6" y="82.61">L</tspan><tspan x="340.4" y="82.61">ab</tspan></text>
</svg>