<?xml version="1.0" encoding="UTF-8"?>
<svg xmlns="http://www.w3.org/2000/svg" viewBox="0 0 270 126.64">
  <defs>
    <style>
      .cls-1 { fill: #acc137; }
      .cls-2 { fill: #104c9d; }
    </style>
  </defs>
  <g>
    <path class="cls-2" d="m84.27,20.17c-9.84-9.84-23.42-15.92-38.41-15.92h-12.15s-.08.04-.08.08v20.76s.04.08.08.08h11.45c19.46,0,35.18,15.93,34.05,35.36-1.01,17.52-15.59,31.46-33.35,31.46h-12.15s-.08.04-.08.08v20.76s.04.08.08.08h12.15c30,0,54.32-24.32,54.32-54.32,0-15-6.08-28.58-15.91-38.41Z"/>
    <path class="cls-2" d="m214.76,86.5V5.75h-20.91v86.01c0,11.55,9.36,20.91,20.91,20.91h48.24v-20.91h-42.98c-2.91,0-5.26-2.36-5.26-5.26Z"/>
    <path class="cls-2" d="m185.37,26.67V5.75h-58.54c-11.55,0-20.91,9.36-20.91,20.91v86.23h20.91v-41.11h41.07v-20.91h-41.07v-24.21h58.54Z"/>
    <path class="cls-1" d="m54.3,74.35h-9.43v9.67c-2.01-1.16-3.71-2.14-5.41-3.12-3.11-1.79-6.24-3.54-9.3-5.41-.92-.56-1.58-.51-2.47.01-4.42,2.62-8.88,5.18-13.33,7.76-.32.18-.65.35-1.24.66v-9.44H3.55c1.34-2.36,2.48-4.4,3.65-6.42,1.6-2.79,3.19-5.58,4.86-8.33.52-.85.52-1.47.01-2.33-2.62-4.42-5.17-8.89-7.73-13.35-.2-.35-.35-.74-.64-1.34h9.31v-9.59c1.66.94,3.04,1.7,4.4,2.49,3.25,1.87,6.55,3.66,9.71,5.67,1.4.89,2.41.77,3.74-.04,4.07-2.47,8.22-4.81,12.35-7.2.45-.26.91-.48,1.56-.83v9.37h9.6c-.43.83-.69,1.37-.98,1.89-2.49,4.31-4.95,8.63-7.5,12.92-.51.86-.51,1.47,0,2.32,2.54,4.28,5.01,8.61,7.49,12.92.28.49.54,1,.93,1.72Zm-10.5-30.38c-.07-.08-.14-.16-.21-.24-.27.13-.55.25-.81.4-4.18,2.4-8.37,4.77-12.51,7.23-.95.56-1.64.6-2.61.02-4.14-2.47-8.33-4.84-12.51-7.23-.32-.18-.68-.3-1.29-.57,2.77,4.8,5.34,9.31,7.98,13.77.55.93.47,1.58-.05,2.47-2.06,3.44-4.04,6.93-6.04,10.41-.58,1.01-1.15,2.04-1.72,3.06,4.73-2.41,9.24-4.97,13.7-7.61.92-.54,1.57-.51,2.47.02,3.49,2.09,7.03,4.09,10.56,6.11.94.54,1.9,1.06,3.16,1.76-.23-.55-.29-.74-.38-.91-2.41-4.17-4.76-8.37-7.27-12.48-.76-1.24-.68-2.12.04-3.31,2.56-4.26,5-8.59,7.48-12.9Z"/>
  </g>
</svg>
